<svg xmlns="http://www.w3.org/2000/svg" height="596pt" version="1.1" viewBox="1 1 596 596.718" width="596pt">
<g id="surface1">
<path d="M 375.472656 577.097656 L 348.609375 487.550781 L 249.109375 487.550781 L 222.242188 577.097656 L 189.410156 577.097656 L 189.410156 597 L 408.308594 597 L 408.308594 577.097656 Z M 375.472656 577.097656 " style=" stroke:none;fill-rule:nonzero;fill:rgb(85.490196%,86.666667%,87.45098%);fill-opacity:1;" />
<path d="M 40.160156 89.550781 C 23.671875 89.550781 10.308594 102.914062 10.308594 119.402344 L 10.308594 427.851562 L 587.410156 427.851562 L 587.410156 119.402344 C 587.410156 102.914062 574.046875 89.550781 557.558594 89.550781 Z M 40.160156 89.550781 " style=" stroke:none;fill-rule:nonzero;fill:rgb(26.27451%,59.607843%,81.960784%);fill-opacity:1;" />
<path d="M 10.308594 427.851562 L 10.308594 457.699219 C 10.308594 474.1875 23.671875 487.550781 40.160156 487.550781 L 557.558594 487.550781 C 574.046875 487.550781 587.410156 474.1875 587.410156 457.699219 L 587.410156 427.851562 Z M 10.308594 427.851562 " style=" stroke:none;fill-rule:nonzero;fill:rgb(85.490196%,86.666667%,87.45098%);fill-opacity:1;" />
<path d="M 497.859375 9.949219 L 99.859375 9.949219 C 83.371094 9.949219 70.007812 23.3125 70.007812 39.800781 L 70.007812 398 L 527.707031 398 L 527.707031 39.800781 C 527.707031 23.3125 514.347656 9.949219 497.859375 9.949219 Z M 497.859375 9.949219 " style=" stroke:none;fill-rule:nonzero;fill:rgb(52.941176%,80.784314%,85.098039%);fill-opacity:1;" />
<path d="M 497.859375 9.949219 L 487.910156 9.949219 L 99.859375 398 L 527.707031 398 L 527.707031 39.800781 C 527.707031 23.3125 514.347656 9.949219 497.859375 9.949219 Z M 497.859375 9.949219 " style=" stroke:none;fill-rule:nonzero;fill:rgb(44.313725%,76.862745%,81.960784%);fill-opacity:1;" />
<path d="M 99.859375 39.800781 L 119.757812 39.800781 L 119.757812 59.699219 L 99.859375 59.699219 Z M 99.859375 39.800781 " style=" stroke:none;fill-rule:nonzero;fill:rgb(36.862745%,70.196078%,81.960784%);fill-opacity:1;" />
<path d="M 139.660156 39.800781 L 159.558594 39.800781 L 159.558594 59.699219 L 139.660156 59.699219 Z M 139.660156 39.800781 " style=" stroke:none;fill-rule:nonzero;fill:rgb(36.862745%,70.196078%,81.960784%);fill-opacity:1;" />
<path d="M 179.457031 39.800781 L 199.359375 39.800781 L 199.359375 59.699219 L 179.457031 59.699219 Z M 179.457031 39.800781 " style=" stroke:none;fill-rule:nonzero;fill:rgb(36.862745%,70.196078%,81.960784%);fill-opacity:1;" />
<path d="M 99.859375 79.597656 L 497.859375 79.597656 L 497.859375 99.5 L 99.859375 99.5 Z M 99.859375 79.597656 " style=" stroke:none;fill-rule:nonzero;fill:rgb(36.862745%,70.196078%,81.960784%);fill-opacity:1;" />
<path d="M 119.757812 129.351562 L 199.359375 129.351562 C 204.851562 129.351562 209.308594 133.808594 209.308594 139.300781 L 209.308594 199 C 209.308594 204.492188 204.851562 208.949219 199.359375 208.949219 L 119.757812 208.949219 C 114.265625 208.949219 109.808594 204.492188 109.808594 199 L 109.808594 139.300781 C 109.808594 133.808594 114.265625 129.351562 119.757812 129.351562 Z M 119.757812 129.351562 " style=" stroke:none;fill-rule:nonzero;fill:rgb(89.019608%,29.411765%,52.941176%);fill-opacity:1;" />
<path d="M 259.058594 129.351562 L 338.660156 129.351562 C 344.152344 129.351562 348.609375 133.808594 348.609375 139.300781 L 348.609375 199 C 348.609375 204.492188 344.152344 208.949219 338.660156 208.949219 L 259.058594 208.949219 C 253.566406 208.949219 249.109375 204.492188 249.109375 199 L 249.109375 139.300781 C 249.109375 133.808594 253.566406 129.351562 259.058594 129.351562 Z M 259.058594 129.351562 " style=" stroke:none;fill-rule:nonzero;fill:rgb(89.019608%,29.411765%,52.941176%);fill-opacity:1;" />
<path d="M 398.359375 129.351562 L 477.957031 129.351562 C 483.453125 129.351562 487.910156 133.808594 487.910156 139.300781 L 487.910156 199 C 487.910156 204.492188 483.449219 208.949219 477.957031 208.949219 L 398.359375 208.949219 C 392.867188 208.949219 388.410156 204.492188 388.410156 199 L 388.410156 139.300781 C 388.410156 133.808594 392.867188 129.351562 398.359375 129.351562 Z M 398.359375 129.351562 " style=" stroke:none;fill-rule:nonzero;fill:rgb(89.019608%,29.411765%,52.941176%);fill-opacity:1;" />
<path d="M 119.757812 248.75 L 199.359375 248.75 C 204.851562 248.75 209.308594 253.207031 209.308594 258.699219 L 209.308594 318.398438 C 209.308594 323.890625 204.851562 328.347656 199.359375 328.347656 L 119.757812 328.347656 C 114.265625 328.347656 109.808594 323.890625 109.808594 318.398438 L 109.808594 258.699219 C 109.808594 253.207031 114.265625 248.75 119.757812 248.75 Z M 119.757812 248.75 " style=" stroke:none;fill-rule:nonzero;fill:rgb(89.019608%,29.411765%,52.941176%);fill-opacity:1;" />
<path d="M 259.058594 248.75 L 338.660156 248.75 C 344.152344 248.75 348.609375 253.207031 348.609375 258.699219 L 348.609375 318.398438 C 348.609375 323.890625 344.152344 328.347656 338.660156 328.347656 L 259.058594 328.347656 C 253.566406 328.347656 249.109375 323.890625 249.109375 318.398438 L 249.109375 258.699219 C 249.109375 253.207031 253.566406 248.75 259.058594 248.75 Z M 259.058594 248.75 " style=" stroke:none;fill-rule:nonzero;fill:rgb(74.901961%,23.921569%,45.882353%);fill-opacity:1;" />
<path d="M 398.359375 248.75 L 477.957031 248.75 C 483.453125 248.75 487.910156 253.207031 487.910156 258.699219 L 487.910156 318.398438 C 487.910156 323.890625 483.449219 328.347656 477.957031 328.347656 L 398.359375 328.347656 C 392.867188 328.347656 388.410156 323.890625 388.410156 318.398438 L 388.410156 258.699219 C 388.410156 253.207031 392.867188 248.75 398.359375 248.75 Z M 398.359375 248.75 " style=" stroke:none;fill-rule:nonzero;fill:rgb(89.019608%,29.411765%,52.941176%);fill-opacity:1;" />
<path d="M 199.359375 368.148438 L 119.757812 368.148438 C 114.265625 368.148438 109.808594 372.609375 109.808594 378.097656 L 109.808594 398 L 209.308594 398 L 209.308594 378.097656 C 209.308594 372.605469 204.851562 368.148438 199.359375 368.148438 Z M 199.359375 368.148438 " style=" stroke:none;fill-rule:nonzero;fill:rgb(74.901961%,23.921569%,45.882353%);fill-opacity:1;" />
<path d="M 338.660156 368.148438 L 259.058594 368.148438 C 253.566406 368.148438 249.109375 372.609375 249.109375 378.097656 L 249.109375 398 L 348.609375 398 L 348.609375 378.097656 C 348.609375 372.605469 344.152344 368.148438 338.660156 368.148438 Z M 338.660156 368.148438 " style=" stroke:none;fill-rule:nonzero;fill:rgb(89.019608%,29.411765%,52.941176%);fill-opacity:1;" />
<path d="M 477.957031 368.148438 L 398.359375 368.148438 C 392.867188 368.148438 388.410156 372.609375 388.410156 378.097656 L 388.410156 398 L 487.910156 398 L 487.910156 378.097656 C 487.910156 372.605469 483.453125 368.148438 477.957031 368.148438 Z M 477.957031 368.148438 " style=" stroke:none;fill-rule:nonzero;fill:rgb(89.019608%,29.411765%,52.941176%);fill-opacity:1;" />
<path d="M 357.5625 517.398438 L 348.609375 487.550781 L 249.109375 487.550781 L 240.152344 517.398438 Z M 357.5625 517.398438 " style=" stroke:none;fill-rule:nonzero;fill:rgb(75.686275%,78.039216%,78.823529%);fill-opacity:1;" />
<path d="M 527.707031 89.550781 L 557.558594 89.550781 L 557.558594 427.851562 L 527.707031 427.851562 Z M 527.707031 89.550781 " style=" stroke:none;fill-rule:nonzero;fill:rgb(24.313725%,54.901961%,78.039216%);fill-opacity:1;" />
<path d="M 70.007812 398 L 527.707031 398 L 527.707031 427.851562 L 70.007812 427.851562 Z M 70.007812 398 " style=" stroke:none;fill-rule:nonzero;fill:rgb(44.313725%,76.862745%,81.960784%);fill-opacity:1;" />
<path d="M 557.558594 79.597656 L 557.558594 99.5 C 568.554688 99.5 577.457031 108.40625 577.457031 119.402344 L 577.457031 417.902344 L 20.257812 417.902344 L 20.257812 119.402344 C 20.257812 108.40625 29.164062 99.5 40.160156 99.5 L 40.160156 79.597656 C 18.179688 79.597656 0.359375 97.421875 0.359375 119.402344 L 0.359375 457.699219 C 0.359375 479.679688 18.179688 497.5 40.160156 497.5 L 235.734375 497.5 L 211.855469 577.097656 L 189.410156 577.097656 L 189.410156 597 L 408.308594 597 L 408.308594 577.097656 L 385.859375 577.097656 L 361.980469 497.5 L 557.558594 497.5 C 579.539062 497.5 597.359375 479.679688 597.359375 457.699219 L 597.359375 119.402344 C 597.359375 97.421875 579.539062 79.597656 557.558594 79.597656 Z M 365.085938 577.097656 L 232.632812 577.097656 L 256.511719 497.5 L 341.207031 497.5 Z M 577.457031 457.699219 C 577.457031 468.695312 568.554688 477.597656 557.558594 477.597656 L 40.160156 477.597656 C 29.164062 477.597656 20.257812 468.695312 20.257812 457.699219 L 20.257812 437.796875 L 577.457031 437.796875 Z M 577.457031 457.699219 " style=" stroke:none;fill-rule:nonzero;fill:rgb(0%,0%,0%);fill-opacity:1;" />
<path d="M 60.058594 39.800781 L 60.058594 398 L 79.960938 398 L 79.960938 39.800781 C 79.960938 28.804688 88.863281 19.898438 99.859375 19.898438 L 497.859375 19.898438 C 508.855469 19.898438 517.761719 28.804688 517.761719 39.800781 L 517.761719 398 L 537.660156 398 L 537.660156 39.800781 C 537.660156 17.820312 519.839844 0 497.859375 0 L 99.859375 0 C 77.878906 0 60.058594 17.820312 60.058594 39.800781 Z M 60.058594 39.800781 " style=" stroke:none;fill-rule:nonzero;fill:rgb(0%,0%,0%);fill-opacity:1;" />
<path d="M 99.859375 39.800781 L 119.757812 39.800781 L 119.757812 59.699219 L 99.859375 59.699219 Z M 99.859375 39.800781 " style=" stroke:none;fill-rule:nonzero;fill:rgb(0%,0%,0%);fill-opacity:1;" />
<path d="M 139.660156 39.800781 L 159.558594 39.800781 L 159.558594 59.699219 L 139.660156 59.699219 Z M 139.660156 39.800781 " style=" stroke:none;fill-rule:nonzero;fill:rgb(0%,0%,0%);fill-opacity:1;" />
<path d="M 179.457031 39.800781 L 199.359375 39.800781 L 199.359375 59.699219 L 179.457031 59.699219 Z M 179.457031 39.800781 " style=" stroke:none;fill-rule:nonzero;fill:rgb(0%,0%,0%);fill-opacity:1;" />
<path d="M 99.859375 79.597656 L 497.859375 79.597656 L 497.859375 99.5 L 99.859375 99.5 Z M 99.859375 79.597656 " style=" stroke:none;fill-rule:nonzero;fill:rgb(0%,0%,0%);fill-opacity:1;" />
<path d="M 219.257812 139.300781 C 219.257812 128.304688 210.351562 119.398438 199.359375 119.398438 L 119.757812 119.398438 C 108.761719 119.398438 99.859375 128.304688 99.859375 139.300781 L 99.859375 199 C 99.859375 209.996094 108.761719 218.902344 119.757812 218.902344 L 199.359375 218.902344 C 210.351562 218.902344 219.257812 209.996094 219.257812 199 Z M 119.757812 199 L 119.757812 139.300781 L 199.359375 139.300781 L 199.359375 199 Z M 119.757812 199 " style=" stroke:none;fill-rule:nonzero;fill:rgb(0%,0%,0%);fill-opacity:1;" />
<path d="M 358.558594 139.300781 C 358.558594 128.304688 349.652344 119.398438 338.660156 119.398438 L 259.058594 119.398438 C 248.0625 119.398438 239.160156 128.304688 239.160156 139.300781 L 239.160156 199 C 239.160156 209.996094 248.0625 218.902344 259.058594 218.902344 L 338.660156 218.902344 C 349.652344 218.902344 358.558594 209.996094 358.558594 199 Z M 259.058594 199 L 259.058594 139.300781 L 338.660156 139.300781 L 338.660156 199 Z M 259.058594 199 " style=" stroke:none;fill-rule:nonzero;fill:rgb(0%,0%,0%);fill-opacity:1;" />
<path d="M 497.859375 139.300781 C 497.859375 128.304688 488.953125 119.398438 477.957031 119.398438 L 398.359375 119.398438 C 387.363281 119.398438 378.457031 128.304688 378.457031 139.300781 L 378.457031 199 C 378.457031 209.996094 387.363281 218.902344 398.359375 218.902344 L 477.957031 218.902344 C 488.953125 218.902344 497.859375 209.996094 497.859375 199 Z M 398.359375 199 L 398.359375 139.300781 L 477.957031 139.300781 L 477.957031 199 Z M 398.359375 199 " style=" stroke:none;fill-rule:nonzero;fill:rgb(0%,0%,0%);fill-opacity:1;" />
<path d="M 219.257812 258.699219 C 219.257812 247.703125 210.351562 238.800781 199.359375 238.800781 L 119.757812 238.800781 C 108.761719 238.800781 99.859375 247.703125 99.859375 258.699219 L 99.859375 318.402344 C 99.859375 329.394531 108.761719 338.300781 119.757812 338.300781 L 199.359375 338.300781 C 210.351562 338.300781 219.257812 329.394531 219.257812 318.402344 Z M 119.757812 318.398438 L 119.757812 258.699219 L 199.359375 258.699219 L 199.359375 318.398438 Z M 119.757812 318.398438 " style=" stroke:none;fill-rule:nonzero;fill:rgb(0%,0%,0%);fill-opacity:1;" />
<path d="M 358.558594 258.699219 C 358.558594 247.703125 349.652344 238.800781 338.660156 238.800781 L 259.058594 238.800781 C 248.0625 238.800781 239.160156 247.703125 239.160156 258.699219 L 239.160156 318.402344 C 239.160156 329.394531 248.0625 338.300781 259.058594 338.300781 L 338.660156 338.300781 C 349.652344 338.300781 358.558594 329.394531 358.558594 318.402344 Z M 259.058594 318.398438 L 259.058594 258.699219 L 338.660156 258.699219 L 338.660156 318.398438 Z M 259.058594 318.398438 " style=" stroke:none;fill-rule:nonzero;fill:rgb(0%,0%,0%);fill-opacity:1;" />
<path d="M 497.859375 258.699219 C 497.859375 247.703125 488.953125 238.800781 477.957031 238.800781 L 398.359375 238.800781 C 387.363281 238.800781 378.457031 247.703125 378.457031 258.699219 L 378.457031 318.402344 C 378.457031 329.394531 387.363281 338.300781 398.359375 338.300781 L 477.957031 338.300781 C 488.953125 338.300781 497.859375 329.394531 497.859375 318.402344 Z M 398.359375 318.398438 L 398.359375 258.699219 L 477.957031 258.699219 L 477.957031 318.398438 Z M 398.359375 318.398438 " style=" stroke:none;fill-rule:nonzero;fill:rgb(0%,0%,0%);fill-opacity:1;" />
<path d="M 219.257812 398 L 219.257812 378.097656 C 219.257812 367.105469 210.351562 358.199219 199.359375 358.199219 L 119.757812 358.199219 C 108.761719 358.199219 99.859375 367.105469 99.859375 378.097656 L 99.859375 398 L 119.757812 398 L 119.757812 378.097656 L 199.359375 378.097656 L 199.359375 398 Z M 219.257812 398 " style=" stroke:none;fill-rule:nonzero;fill:rgb(0%,0%,0%);fill-opacity:1;" />
<path d="M 358.558594 398 L 358.558594 378.097656 C 358.558594 367.105469 349.652344 358.199219 338.660156 358.199219 L 259.058594 358.199219 C 248.0625 358.199219 239.160156 367.105469 239.160156 378.097656 L 239.160156 398 L 259.058594 398 L 259.058594 378.097656 L 338.660156 378.097656 L 338.660156 398 Z M 358.558594 398 " style=" stroke:none;fill-rule:nonzero;fill:rgb(0%,0%,0%);fill-opacity:1;" />
<path d="M 497.859375 398 L 497.859375 378.097656 C 497.859375 367.105469 488.953125 358.199219 477.957031 358.199219 L 398.359375 358.199219 C 387.363281 358.199219 378.457031 367.105469 378.457031 378.097656 L 378.457031 398 L 398.359375 398 L 398.359375 378.097656 L 477.957031 378.097656 L 477.957031 398 Z M 497.859375 398 " style=" stroke:none;fill-rule:nonzero;fill:rgb(0%,0%,0%);fill-opacity:1;" />
</g>
</svg>